<?xml version="1.0" encoding="UTF-8"?>
<svg version="1.1" xmlns="http://www.w3.org/2000/svg" width="120" height="32">
<path d="M0 0 C4.62 0 9.24 0 14 0 C13.67 0.99 13.34 1.98 13 3 C13.495 2.62875 13.99 2.2575 14.5 1.875 C19.34637316 0.17876939 24.07134486 2.56883868 28.5 4.625 C29.325 5.07875 30.15 5.5325 31 6 C30.75 7.875 30.75 7.875 30 10 C27.06004981 12.02755186 25.72295997 12 22 12 C22 15.63 22 19.26 22 23 C19.30734639 24.3463268 17.19885751 24.12962636 14.1875 24.1328125 C13.02992187 24.13410156 11.87234375 24.13539062 10.6796875 24.13671875 C9.46539062 24.13285156 8.25109375 24.12898438 7 24.125 C5.17855469 24.13080078 5.17855469 24.13080078 3.3203125 24.13671875 C1.58394531 24.13478516 1.58394531 24.13478516 -0.1875 24.1328125 C-1.25355469 24.13168457 -2.31960937 24.13055664 -3.41796875 24.12939453 C-6 24 -6 24 -8 23 C-8 19.37 -8 15.74 -8 12 C-8.928125 11.87625 -9.85625 11.7525 -10.8125 11.625 C-14 11 -14 11 -17 9 C-15.80133136 5.40399407 -14.30594829 4.61884534 -11.0546875 2.8515625 C-7.72752158 1.47262301 -4.58014941 1.25123856 -1 1 C-0.34 1.99 0.32 2.98 1 4 C1.66 4 2.32 4 3 4 C2.505 3.525625 2.01 3.05125 1.5 2.5625 C0 1 0 1 0 0 Z " fill="#2556C6" transform="translate(53,4)"/>
<path d="M0 0 C4.62 0 9.24 0 14 0 C13.67 0.99 13.34 1.98 13 3 C12.01 3.33 11.02 3.66 10 4 C10 3.01 10 2.02 10 1 C7.69 1 5.38 1 3 1 C3 1.66 3 2.32 3 3 C2.34 3 1.68 3 1 3 C0.67 2.01 0.34 1.02 0 0 Z " fill="#2852AF" transform="translate(53,4)"/>
</svg>
